<svg xmlns="http://www.w3.org/2000/svg" viewBox="0 0 133.07 57.98"><defs><style>.cls-1{fill:#ffff;}</style></defs><title>StarAsset 7</title><g id="Layer_2" data-name="Layer 2"><g id="Layer_1-2" data-name="Layer 1"><path class="cls-1" d="M72.31,53.82a1.27,1.27,0,0,0-.94-.44c-.42,0-.9.2-.9.7s.4.6,1,.78,1.49.49,1.49,1.49A1.65,1.65,0,0,1,71.08,58a2.34,2.34,0,0,1-1.75-.73l.65-.6a1.46,1.46,0,0,0,1.11.56c.43,0,.92-.21.92-.76s-.53-.68-1.17-.88-1.29-.5-1.29-1.45.94-1.49,1.86-1.49a2.26,2.26,0,0,1,1.49.54Z"/><path class="cls-1" d="M82.07,52.63a2.56,2.56,0,0,1,2.75,2.66,2.74,2.74,0,0,1-5.48,0A2.56,2.56,0,0,1,82.07,52.63Zm0,4.53a1.87,1.87,0,1,0-1.75-1.87A1.74,1.74,0,0,0,82.08,57.16Z"/><path class="cls-1" d="M91.44,52.76h3.29v.79H92.35v1.39h2.24v.76H92.35v2.15h-.91Z"/><path class="cls-1" d="M102.34,53.55h-1.56v-.79h4v.79h-1.56v4.3h-.91Z"/><path class="cls-1" d="M133.07,14.52V12.4h-1.22v.44H121.08l7-7,.27.27.87-.86-1.54-1.54-.86.87.4.39-7,7V1.22h.43V0h-2.11V1.22H119V11.89a1.56,1.56,0,0,1-3.12,0V1.22h.61V0h-2.41V1.22h.58V11.89s0,.06,0,.1l-7.06-7.06L108,4.6l-.86-.87-1.53,1.54.86.86.34-.34,7,7.06H103.13V12.4h-1.22v2h1.22v-.35h10.62a1.56,1.56,0,1,1,0,3.12H103.13v-.51h-1.22v2.07h1.22V18.4h10.68l-7,7-.4-.39-.86.86,1.53,1.53.86-.86-.27-.27,7-7s0,.08,0,.13V29.94h-.18v1.22h1.6V29.94h-.2V19.36a1.56,1.56,0,0,1,3.12,0V29.94h-.18v1.22h1.6V29.94h-.2V19.26l6.9,6.9-.34.34.86.86,1.54-1.53-.87-.86-.33.33-6.9-6.9h10.73v.48h1.22V16.83h-1.22v.35H121.21a1.56,1.56,0,1,1,0-3.12h10.64v.46Z"/><path class="cls-1" d="M0,37.17V24H3.1V35.67c0,4.5.94,8.83,6.35,8.83s6.36-4.37,6.36-8.83V24h3.1V37.17c0,6.26-3,10.14-9.46,10.14S0,43.43,0,37.17Z"/><path class="cls-1" d="M27.12,38.86v8H23.86V24h7.31c4.23,0,7.95,1,7.95,7.11,0,5.93-4,7.72-7,7.72Zm0-12.06v9.29h4.37c3.16,0,4.4-1.76,4.4-4.82,0-3.26-1.3-4.47-5.31-4.47Z"/><path class="cls-1" d="M58.35,46.85H55.06l-3.32-11.8-3.36,11.8H45.09l-4.8-16h3.46l3.06,12.74L50.2,31.36h3l3.42,12.26,3.06-12.74h3.46Z"/><path class="cls-1" d="M78.34,47.18h-.23c-2.84,0-3.46-.85-4.11-2.35a6.32,6.32,0,0,1-4.89,2.35,4.57,4.57,0,0,1-4.92-4.63c0-4.5,5.48-5.64,9.55-5.71,0-3-1.24-3.68-3.49-3.68a7,7,0,0,0-4.2,1.43l-.43-2.38A9.2,9.2,0,0,1,71,30.55c4,0,5.64,1.89,5.64,7.66v3.26c0,2.28.13,3.36,1.83,3.36h.29Zm-4.6-8.32c-4.66.17-6.55,1.14-6.55,3.52a2.21,2.21,0,0,0,2.48,2.45,5.18,5.18,0,0,0,4.07-2.15Z"/><path class="cls-1" d="M88.83,33.52h-1a4.88,4.88,0,0,0-3.65,2V46.85H81v-16h2.41l.36,2.64c1.93-2.19,3.46-3.23,5.41-3.23h.27Z"/><path class="cls-1" d="M93.1,38.86c.43,4.44,3,5.71,6,5.71a11.53,11.53,0,0,0,4.6-1l.39,2.32a12.84,12.84,0,0,1-5.35,1.24c-5.64,0-8.63-3.85-8.63-8.45s2.86-8.18,7.82-8.18c4,0,6.88,2.44,6.88,6.75a8.94,8.94,0,0,1-.13,1.56Zm.27-2h8.41c0-2.25-1.24-3.68-3.92-3.68S94,34.53,93.37,36.84Z"/></g></g></svg>