<svg xmlns="http://www.w3.org/2000/svg" viewBox="0 0 183.14 66.53"><defs><style>.cls-1{fill:#fff;}</style></defs><title>backAsset 6</title><g id="Layer_2" data-name="Layer 2"><g id="Layer_1-2" data-name="Layer 1"><path class="cls-1" d="M27,26.52a14.35,14.35,0,0,1-5.17,3.35,17.7,17.7,0,0,1-6.1,1.06A17.44,17.44,0,0,1,8.6,29.61a13.84,13.84,0,0,1-4.87-3.45A13.91,13.91,0,0,1,.91,21.27,17.81,17.81,0,0,1,0,15.63,18,18,0,0,1,.93,9.91a14.3,14.3,0,0,1,2.88-5A14.55,14.55,0,0,1,8.73,1.36a16.54,16.54,0,0,1,7-1.36A15,15,0,0,1,26.6,4.53l-3.72,3.6A9.36,9.36,0,0,0,19.53,6a10.86,10.86,0,0,0-3.81-.68,10.79,10.79,0,0,0-4.62.91,9.08,9.08,0,0,0-5,5.68,12.41,12.41,0,0,0-.57,3.7,11.9,11.9,0,0,0,.57,3.65,9.28,9.28,0,0,0,1.8,3.21A8.61,8.61,0,0,0,11,24.8a11.3,11.3,0,0,0,4.68.87,11.07,11.07,0,0,0,4-.76,9.8,9.8,0,0,0,3.49-2.25Z"/><path class="cls-1" d="M45.9,12.24l.2-3.17H51V30.69H46.19L45.9,27.2a5,5,0,0,1-1.25,1.61A8.22,8.22,0,0,1,42.94,30a9.11,9.11,0,0,1-1.93.7,8.53,8.53,0,0,1-1.88.23,12.64,12.64,0,0,1-4.3-.7,9.16,9.16,0,0,1-3.41-2.09,9.69,9.69,0,0,1-2.25-3.48,13.22,13.22,0,0,1-.8-4.83A12.52,12.52,0,0,1,29.21,15a9.79,9.79,0,0,1,2.31-3.43A9.42,9.42,0,0,1,35,9.53a13.28,13.28,0,0,1,4.28-.68,8.77,8.77,0,0,1,3.94.91A6.19,6.19,0,0,1,45.9,12.24Zm-6.18,1.23a6.78,6.78,0,0,0-2.42.43,5.69,5.69,0,0,0-2,1.22,6,6,0,0,0-1.31,2,7.13,7.13,0,0,0-.49,2.67A7.06,7.06,0,0,0,34,22.45a6.14,6.14,0,0,0,1.31,2,5.35,5.35,0,0,0,2,1.25,6.78,6.78,0,0,0,2.42.43,5.68,5.68,0,0,0,5.42-3.29,7.18,7.18,0,0,0,0-6.1,6,6,0,0,0-2-2.35A5.88,5.88,0,0,0,39.72,13.47Z"/><path class="cls-1" d="M68.57,30.69V19.06a7.26,7.26,0,0,0-.27-2,5.75,5.75,0,0,0-.81-1.69,3.94,3.94,0,0,0-1.33-1.17,4,4,0,0,0-1.87-.42,4.1,4.1,0,0,0-1.88.42A4.28,4.28,0,0,0,61,15.4a5.41,5.41,0,0,0-.87,1.69,6.58,6.58,0,0,0-.3,2V30.69H54.68V9.07h4.73l.43,2.79a4.78,4.78,0,0,1,1.06-1.35,5.7,5.7,0,0,1,1.38-.89,6.35,6.35,0,0,1,1.53-.49A8.11,8.11,0,0,1,65.35,9a7.78,7.78,0,0,1,3.6.87,5.67,5.67,0,0,1,2.59,3,7.39,7.39,0,0,1,3.17-3,9.42,9.42,0,0,1,3.82-.78q4.48,0,6.67,2.58c1.45,1.72,2.18,4.17,2.18,7.33V30.69H82.21V19A8.27,8.27,0,0,0,82,17a5.36,5.36,0,0,0-.7-1.63,3.28,3.28,0,0,0-1.21-1.1,3.68,3.68,0,0,0-1.8-.4,4.1,4.1,0,0,0-1.88.42A4.58,4.58,0,0,0,75,15.44a4.9,4.9,0,0,0-.91,1.65,6.3,6.3,0,0,0-.32,2V30.69Z"/><path class="cls-1" d="M90.82,34.19V9.07H95.6L96,12.24A7.05,7.05,0,0,1,99.1,9.68a9.58,9.58,0,0,1,3.67-.78,11,11,0,0,1,4.38.84,10.62,10.62,0,0,1,3.39,2.31,10.07,10.07,0,0,1,2.18,3.48,12,12,0,0,1,.76,4.3,12.92,12.92,0,0,1-.69,4.27,10.14,10.14,0,0,1-2.06,3.48,9.57,9.57,0,0,1-3.32,2.33,11.35,11.35,0,0,1-4.47.85,12.07,12.07,0,0,1-1.83-.15,10,10,0,0,1-1.92-.49,8,8,0,0,1-1.8-.91A4.86,4.86,0,0,1,96,27.79v6.4Zm11.57-8.43a6.13,6.13,0,0,0,2.41-.47A5.77,5.77,0,0,0,106.69,24a5.64,5.64,0,0,0,1.2-1.89,6.07,6.07,0,0,0,.43-2.3,6.53,6.53,0,0,0-.41-2.31,5.39,5.39,0,0,0-1.16-1.89,5.59,5.59,0,0,0-1.86-1.27,6.4,6.4,0,0,0-2.5-.46,6.33,6.33,0,0,0-2.5.46,5.32,5.32,0,0,0-3,3.16,6.52,6.52,0,0,0-.4,2.31,6.26,6.26,0,0,0,.42,2.3A5.52,5.52,0,0,0,98.09,24,5.62,5.62,0,0,0,100,25.29,6.18,6.18,0,0,0,102.39,25.76Z"/><path class="cls-1" d="M121.59,9.07V20.29a7.36,7.36,0,0,0,.31,2.2,5.09,5.09,0,0,0,1,1.78,4.22,4.22,0,0,0,1.59,1.19,5.33,5.33,0,0,0,2.18.42,5,5,0,0,0,3.87-1.73,5.69,5.69,0,0,0,1.08-1.87A6.39,6.39,0,0,0,132,20v-11h5.12V30.69h-4.56l-.39-3.24a11.61,11.61,0,0,1-3.25,2.37,8.9,8.9,0,0,1-3.83.77,8.58,8.58,0,0,1-3.45-.7,7.66,7.66,0,0,1-2.73-2,9.25,9.25,0,0,1-1.8-3.21,13.26,13.26,0,0,1-.66-4.33V9.07Z"/><path class="cls-1" d="M154.66,14.91a6.09,6.09,0,0,0-2.39-1.46,9.3,9.3,0,0,0-2.78-.4,5.86,5.86,0,0,0-2.84.55,1.68,1.68,0,0,0-1,1.52q0,2,3.9,2.29a29,29,0,0,1,3.07.36,9.18,9.18,0,0,1,2.88,1,6.16,6.16,0,0,1,2.14,2,6,6,0,0,1,.85,3.34,6.17,6.17,0,0,1-.58,2.63,6.28,6.28,0,0,1-1.69,2.18,8.22,8.22,0,0,1-2.8,1.51,12.74,12.74,0,0,1-3.92.55,22.84,22.84,0,0,1-2.47-.13,10.91,10.91,0,0,1-2.46-.53,11.31,11.31,0,0,1-2.39-1.14,12.29,12.29,0,0,1-2.33-1.93l2.54-3.69a8.4,8.4,0,0,0,3.47,2.2,12.89,12.89,0,0,0,3.73.68,5.35,5.35,0,0,0,2.63-.54,1.91,1.91,0,0,0,.19-3.4,7.35,7.35,0,0,0-3.2-.72,20.23,20.23,0,0,1-3-.48,9.84,9.84,0,0,1-2.77-1.1,6.45,6.45,0,0,1-2.06-1.93,5.14,5.14,0,0,1-.8-3,5.4,5.4,0,0,1,.84-3.07,6.74,6.74,0,0,1,2.14-2,9.38,9.38,0,0,1,2.84-1.1,13.72,13.72,0,0,1,3-.34,15.45,15.45,0,0,1,4.38.57,10,10,0,0,1,3.75,2.18Z"/><path class="cls-1" d="M87.4,46.54c0-6.34-4.48-10.94-10.66-10.94-5.47,0-9.26,3.56-12.3,6.6h0L63.33,43.3l-1.21,1.24-.19.19L60.5,46.2l-.23.24c-2.53,2.6-5.67,5.83-9.38,5.83a5.44,5.44,0,0,1-5.51-5.73c0-3.27,2.31-7,6.18-7.57a7.84,7.84,0,0,1,2.84.11c4.26,1.07,5.9,3.56,6.42,4.58l.59,1.18-.15-1.32a8.36,8.36,0,0,0-1.61-4,11.12,11.12,0,0,0-8.48-3.94A11,11,0,0,0,40,46.54c0,6.34,4.48,10.94,10.66,10.94,5.47,0,9.26-3.55,12.3-6.59h0L64,49.78c.21-.2.71-.71,1.23-1.26l.18-.17,1.43-1.47.23-.23c2.52-2.6,5.67-5.83,9.37-5.83A5.44,5.44,0,0,1,82,46.54c0,3.27-2.31,7-6.17,7.58A8.06,8.06,0,0,1,73,54l0,0c-4.27-1.07-5.92-3.56-6.43-4.58l-.6-1.2.15,1.33a8.66,8.66,0,0,0,1.62,4A11,11,0,0,0,76,57.47h.16l.57,0,0,0A11,11,0,0,0,87.4,46.54Z"/><path class="cls-1" d="M90.82,66.53V36.74H96L96,39a7,7,0,0,1,3.11-2.56,9.41,9.41,0,0,1,3.67-.79,11,11,0,0,1,4.38.85,10.46,10.46,0,0,1,3.39,2.31,9.94,9.94,0,0,1,2.18,3.47,12,12,0,0,1,.76,4.3,13,13,0,0,1-.69,4.28,10.14,10.14,0,0,1-2.06,3.48,9.71,9.71,0,0,1-3.32,2.33,11.34,11.34,0,0,1-4.47.84,12.07,12.07,0,0,1-1.83-.15,10.79,10.79,0,0,1-1.92-.48,8,8,0,0,1-1.8-.91A5.11,5.11,0,0,1,96,54.5v12Zm11.57-14.07A6.13,6.13,0,0,0,104.8,52a5.93,5.93,0,0,0,1.89-1.27,5.64,5.64,0,0,0,1.2-1.89,6.12,6.12,0,0,0,.43-2.31,6.53,6.53,0,0,0-.41-2.31,5.35,5.35,0,0,0-1.16-1.88,5.44,5.44,0,0,0-1.86-1.27,6.4,6.4,0,0,0-2.5-.47,6.33,6.33,0,0,0-2.5.47A5.39,5.39,0,0,0,98,42.34a5.5,5.5,0,0,0-1.16,1.88,6.52,6.52,0,0,0-.4,2.31,6.32,6.32,0,0,0,.42,2.31,5.52,5.52,0,0,0,1.21,1.89A5.78,5.78,0,0,0,100,52,6.17,6.17,0,0,0,102.39,52.46Z"/><path class="cls-1" d="M133.93,38.83l.18-3.23h4.94V56.83h-4.87l-.25-3a5.18,5.18,0,0,1-1.25,1.61A8.29,8.29,0,0,1,131,56.53a8.52,8.52,0,0,1-1.92.7,8.15,8.15,0,0,1-1.89.24,12.93,12.93,0,0,1-4.3-.7,9.4,9.4,0,0,1-3.41-2.1,9.65,9.65,0,0,1-2.25-3.47,13.51,13.51,0,0,1-.8-4.83,12.35,12.35,0,0,1,.85-4.77,9.61,9.61,0,0,1,2.31-3.43A9.39,9.39,0,0,1,123,36.11a13.24,13.24,0,0,1,4.28-.67,8.67,8.67,0,0,1,3.94.91A6.24,6.24,0,0,1,133.93,38.83Zm-6.19,1.22a7,7,0,0,0-2.41.43,5.48,5.48,0,0,0-2,1.23,5.71,5.71,0,0,0-1.31,2,7.52,7.52,0,0,0,0,5.34,6,6,0,0,0,1.31,2,5.39,5.39,0,0,0,2,1.25,6.94,6.94,0,0,0,2.41.42,5.84,5.84,0,0,0,3.39-.93,6,6,0,0,0,2-2.35,7.28,7.28,0,0,0,0-6.1,5.91,5.91,0,0,0-2-2.35A5.84,5.84,0,0,0,127.74,40.05Z"/><path class="cls-1" d="M160.47,54.14a11.33,11.33,0,0,1-3.77,2.56,11.64,11.64,0,0,1-4.28.77,13.41,13.41,0,0,1-4.3-.68,9.58,9.58,0,0,1-5.91-5.51,12.34,12.34,0,0,1-.89-4.87,12.31,12.31,0,0,1,.89-4.87A9.51,9.51,0,0,1,148.12,36a13.41,13.41,0,0,1,4.3-.68,10.79,10.79,0,0,1,4,.7A10.59,10.59,0,0,1,160,38.43l-3.26,3.41a6,6,0,0,0-2-1.25,6.2,6.2,0,0,0-2.19-.41,6.31,6.31,0,0,0-2.41.45,5.42,5.42,0,0,0-1.91,1.27,5.87,5.87,0,0,0-1.25,2A7.51,7.51,0,0,0,147,49a5.22,5.22,0,0,0,1.3,1.91,5.63,5.63,0,0,0,1.88,1.16,6.38,6.38,0,0,0,2.29.41,7.93,7.93,0,0,0,2.41-.38A5.44,5.44,0,0,0,157,50.73Z"/><path class="cls-1" d="M168.74,27.9V45l7.9-9.41h6.19v.3l-9.39,10.55,9.7,10.68v.38h-6.23l-8.17-9.45v9.45h-5.17V27.9Z"/></g></g></svg>