<svg xmlns="http://www.w3.org/2000/svg" viewBox="0 0 155.68 26.99"><defs><style>.cls-1{fill:#fff;}</style></defs><title>backAsset 8</title><g id="Layer_2" data-name="Layer 2"><g id="Layer_1-2" data-name="Layer 1"><path class="cls-1" d="M31.3,10.06H28.86l-.53,3h2.45a2,2,0,0,0,.79-.15,1.9,1.9,0,0,0,.59-.39,1.54,1.54,0,0,0,.36-.55,1.51,1.51,0,0,0,.13-.63,1.21,1.21,0,0,0-1.35-1.25Z"/><path class="cls-1" d="M53.4,10.27A1,1,0,0,0,53,10a1.2,1.2,0,0,0-.57-.12H50l-.51,2.87H52a1.75,1.75,0,0,0,.74-.15,1.88,1.88,0,0,0,.54-.39,1.55,1.55,0,0,0,.32-.51,1.58,1.58,0,0,0,.11-.54,1.41,1.41,0,0,0-.07-.45A1.2,1.2,0,0,0,53.4,10.27Z"/><path class="cls-1" d="M43.22,10.63a2.37,2.37,0,0,0-.88-.67,2.92,2.92,0,0,0-1.26-.25,3.72,3.72,0,0,0-2.67,1.1A3.55,3.55,0,0,0,37.6,12a3.51,3.51,0,0,0-.3,1.44,3.12,3.12,0,0,0,.18,1.07,2.41,2.41,0,0,0,.53.84,2.32,2.32,0,0,0,.84.55,3,3,0,0,0,1.11.2,3.71,3.71,0,0,0,1.34-.24,3.81,3.81,0,0,0,1.12-.66,3.47,3.47,0,0,0,.81-1,3.92,3.92,0,0,0,.45-1.27,3,3,0,0,0,0-1.26A2.5,2.5,0,0,0,43.22,10.63Z"/><path class="cls-1" d="M16.86,0,0,27H61.9L78.82,0Zm2.7,11.23a1,1,0,0,0,.4.29,2.33,2.33,0,0,0,.61.17l.78.1a7.14,7.14,0,0,1,1.24.22,3.46,3.46,0,0,1,1,.5,2.34,2.34,0,0,1,.72.81,2.47,2.47,0,0,1,.27,1.2,3.37,3.37,0,0,1-.39,1.68,3.28,3.28,0,0,1-1.05,1.11,4.84,4.84,0,0,1-1.52.64,8.05,8.05,0,0,1-1.79.19,6.3,6.3,0,0,1-1.15-.1,4.64,4.64,0,0,1-1.06-.31,4,4,0,0,1-.9-.52,2.82,2.82,0,0,1-.67-.75l1.41-1.65a2.39,2.39,0,0,0,.54.6,3.62,3.62,0,0,0,.68.41,4.15,4.15,0,0,0,.76.23,3.39,3.39,0,0,0,.76.08,4,4,0,0,0,.88-.09,2.26,2.26,0,0,0,.69-.27,1.27,1.27,0,0,0,.46-.43,1,1,0,0,0,.16-.57A.79.79,0,0,0,22,14a4.15,4.15,0,0,0-1.33-.34,9.79,9.79,0,0,1-1.41-.27,3.31,3.31,0,0,1-1.15-.54,2.22,2.22,0,0,1-.71-.92,2.71,2.71,0,0,1-.09-1.42,2.9,2.9,0,0,1,.55-1.28,3.47,3.47,0,0,1,1-.91,4.83,4.83,0,0,1,1.34-.54,6.28,6.28,0,0,1,1.5-.18,7.52,7.52,0,0,1,1,.06,3.44,3.44,0,0,1,.85.23,3.14,3.14,0,0,1,.73.42A3.71,3.71,0,0,1,25,9l-1.47,1.32a1.94,1.94,0,0,0-.93-.59,3.72,3.72,0,0,0-1.17-.19,3,3,0,0,0-.74.08,2.24,2.24,0,0,0-.63.25,1.25,1.25,0,0,0-.43.39.88.88,0,0,0-.17.53A.71.71,0,0,0,19.56,11.23Zm15,1.26a3.82,3.82,0,0,1-.86,1.31,4.22,4.22,0,0,1-1.4.9,5.11,5.11,0,0,1-1.9.34H28l-.49,2.78H25.3L27,8h4.64a4.08,4.08,0,0,1,1.43.23,3,3,0,0,1,1,.63,2.42,2.42,0,0,1,.59.95,3.33,3.33,0,0,1,.19,1.14A4.08,4.08,0,0,1,34.59,12.49Zm10.87,2a5.7,5.7,0,0,1-1.33,1.92,6,6,0,0,1-2,1.22,7.25,7.25,0,0,1-2.5.43,5.58,5.58,0,0,1-1.88-.3,3.89,3.89,0,0,1-1.41-.84,3.68,3.68,0,0,1-.9-1.34,4.51,4.51,0,0,1-.32-1.77,6.3,6.3,0,0,1,.48-2.5,5.72,5.72,0,0,1,1.34-1.92,6,6,0,0,1,2-1.22,7,7,0,0,1,2.5-.43,5.53,5.53,0,0,1,1.88.3,3.8,3.8,0,0,1,1.42.84,3.73,3.73,0,0,1,.9,1.33A4.78,4.78,0,0,1,46,12,6.33,6.33,0,0,1,45.46,14.49ZM55.21,13A4.6,4.6,0,0,1,53,14.39l2.12,3.26,0,.17H52.72l-1.94-3.23H49.15l-.58,3.23H46.38L48.11,8h4.67a3.82,3.82,0,0,1,1.37.23,2.84,2.84,0,0,1,1,.62,2.53,2.53,0,0,1,.58.9,3.23,3.23,0,0,1,.19,1.08A3.42,3.42,0,0,1,55.21,13ZM61.83,10l-1.39,7.87H58.26L59.65,10h-3L57,8h8.16l-.35,2Z"/><path class="cls-1" d="M82.59,16.31h-5l-1,1.68H74.13L80.24,8.2h2.37L85.29,18H83Zm-1.46-5.94-2.4,4H82.1Z"/><path class="cls-1" d="M94.71,18H92.33L90.4,14.78H88.78L88.21,18H86L87.75,8.2h4.64a3.82,3.82,0,0,1,1.37.23,2.79,2.79,0,0,1,1,.62,2.49,2.49,0,0,1,.58.89A3.25,3.25,0,0,1,95.49,11a3.42,3.42,0,0,1-.68,2.2,4.61,4.61,0,0,1-2.18,1.37l2.11,3.24Zm-5.1-7.91-.51,2.85h2.49a1.68,1.68,0,0,0,1.28-.54,1.37,1.37,0,0,0,.32-.51,1.48,1.48,0,0,0,.11-.53,1.76,1.76,0,0,0-.07-.45,1.2,1.2,0,0,0-.22-.42,1,1,0,0,0-.38-.29,1.33,1.33,0,0,0-.56-.11Z"/><path class="cls-1" d="M104.57,16.8a5.64,5.64,0,0,1-1.9,1.1,6.57,6.57,0,0,1-2.11.34,5.44,5.44,0,0,1-2-.33,3.94,3.94,0,0,1-1.37-.9,3.47,3.47,0,0,1-.81-1.32,5,5,0,0,1-.26-1.6,6.43,6.43,0,0,1,.39-2.18,5.9,5.9,0,0,1,3.14-3.38A6.29,6.29,0,0,1,102.37,8a4.58,4.58,0,0,1,1.86.38,4.09,4.09,0,0,1,1.47,1.13l-1.59,1.33a2,2,0,0,0-.94-.62A3.85,3.85,0,0,0,102,10a3.46,3.46,0,0,0-1.48.3,3.65,3.65,0,0,0-1.09.75,3.94,3.94,0,0,0-.72,1,4.44,4.44,0,0,0-.35,1.09,3.91,3.91,0,0,0,0,1.08,2.25,2.25,0,0,0,.37,1,2.2,2.2,0,0,0,.84.72,2.93,2.93,0,0,0,1.34.27,3.72,3.72,0,0,0,.64-.06,4.57,4.57,0,0,0,.68-.18,4.43,4.43,0,0,0,.67-.3,2.91,2.91,0,0,0,.57-.4Z"/><path class="cls-1" d="M112,18l.69-3.88h-4.38L107.58,18h-2.19l1.72-9.79h2.19l-.69,3.91H113l.68-3.91h2.16L114.11,18Z"/><path class="cls-1" d="M116,18l1.72-9.79h2.16L118.2,18Z"/><path class="cls-1" d="M123.61,10.16h-3l.35-2h8.12l-.35,2h-3L124.4,18h-2.17Z"/><path class="cls-1" d="M135.89,18h-7.45c.29-1.64.57-3.27.86-4.89s.57-3.26.86-4.9h7.26l-.35,2H132l-.34,1.89h4.83L136.1,14h-4.82l-.35,2h5.31Z"/><path class="cls-1" d="M145.88,16.8a5.64,5.64,0,0,1-1.9,1.1,6.58,6.58,0,0,1-2.12.34,5.42,5.42,0,0,1-2-.33,4.08,4.08,0,0,1-1.38-.9,3.58,3.58,0,0,1-.8-1.32,5,5,0,0,1-.26-1.6,6.43,6.43,0,0,1,.39-2.18A5.82,5.82,0,0,1,141,8.53,6.29,6.29,0,0,1,143.68,8a4.5,4.5,0,0,1,1.85.38A4,4,0,0,1,147,9.49l-1.59,1.33a2,2,0,0,0-.94-.62,3.85,3.85,0,0,0-1.16-.18,3.46,3.46,0,0,0-1.48.3,3.65,3.65,0,0,0-1.09.75,3.94,3.94,0,0,0-.72,1,4.44,4.44,0,0,0-.35,1.09,3.56,3.56,0,0,0,0,1.08,2.25,2.25,0,0,0,.37,1,2.12,2.12,0,0,0,.84.72,2.93,2.93,0,0,0,1.34.27,3.61,3.61,0,0,0,.63-.06,4.39,4.39,0,0,0,.69-.18,3.93,3.93,0,0,0,.66-.3,2.71,2.71,0,0,0,.58-.4Z"/><path class="cls-1" d="M150.18,10.16h-3l.35-2h8.12l-.35,2h-3L151,18H148.8Z"/></g></g></svg>