<svg xmlns="http://www.w3.org/2000/svg" viewBox="0 0 131.48 42.25"><defs><style>.cls-1{fill:#001956;}.cls-2{fill:#fff;}</style></defs><title>backAsset 7</title><g id="Layer_2" data-name="Layer 2"><g id="Layer_1-2" data-name="Layer 1"><path class="cls-1" d="M27.85,2.31h4.37v14H39v3.54H27.85Z"/><path class="cls-1" d="M39.8,13.31c0-4.42,2.93-6.86,6.85-6.86s6.17,2.77,6.17,6.78v1.1H44.05c.09,1.94,1.58,2.71,3.24,2.71a6.76,6.76,0,0,0,3.79-1.22l1.38,2.46a8.57,8.57,0,0,1-5.78,1.86C42.7,20.14,39.8,17.7,39.8,13.31Zm9-1.55a2.28,2.28,0,0,0-2.32-2.52A2.53,2.53,0,0,0,44,11.76Z"/><path class="cls-1" d="M67.08,19.86H62.61a4.68,4.68,0,0,1-.28-1.41,5,5,0,0,1-3.84,1.69c-2,0-4.43-1-4.43-4.07s2.82-3.76,4.07-4a21.08,21.08,0,0,1,4.06-.39v-.44a1.58,1.58,0,0,0-.5-1.25,3,3,0,0,0-1.93-.52,8.27,8.27,0,0,0-4,1.19L54.67,7.75a13,13,0,0,1,5.53-1.3,7.34,7.34,0,0,1,4.62,1.27,4.74,4.74,0,0,1,1.63,4v5A5.91,5.91,0,0,0,67.08,19.86ZM62.19,14c-.14,0-1.3.06-2,.17s-1.85.47-1.85,1.6A1.52,1.52,0,0,0,60,17.32,2.43,2.43,0,0,0,62.19,16Z"/><path class="cls-1" d="M78.23,6.59l-.47,4a3.85,3.85,0,0,0-1.19-.19,2.7,2.7,0,0,0-1.52.41,3.69,3.69,0,0,0-1.55,2.41v6.63H69.24V6.73h4l.25,2.16a4.29,4.29,0,0,1,3.68-2.44A3.18,3.18,0,0,1,78.23,6.59Z"/><path class="cls-1" d="M79.94,6.73h4l.25,2a4.9,4.9,0,0,1,4.06-2.3c3.27,0,4.48,2,4.48,5.12v8.29H88.48V12.45c0-1.49-.41-2.46-1.9-2.46a2.55,2.55,0,0,0-2.38,2.3v7.57H79.94Z"/><path class="cls-1" d="M95.43,3.16a2.35,2.35,0,0,1,4.69,0,2.19,2.19,0,0,1-2.35,2.23A2.16,2.16,0,0,1,95.43,3.16Zm.22,3.57H99.9V19.86H95.65Z"/><path class="cls-1" d="M103,6.73h4l.25,2a4.93,4.93,0,0,1,4.07-2.3c3.26,0,4.47,2,4.47,5.12v8.29h-4.25V12.45c0-1.49-.42-2.46-1.91-2.46a2.56,2.56,0,0,0-2.38,2.3v7.57H103Z"/><path class="cls-1" d="M131.48,6.73V16.82c0,2.24-.28,4.28-1.66,5.72a7.14,7.14,0,0,1-5.64,2.1,13.14,13.14,0,0,1-6-1.49l1.3-3A10.15,10.15,0,0,0,124,21.41a3.65,3.65,0,0,0,2.62-.83,3.05,3.05,0,0,0,.75-2.24v-1a4.5,4.5,0,0,1-3.84,2c-3.51,0-5.7-2.6-5.7-6.45s2.3-6.44,5.75-6.44a4,4,0,0,1,3.68,2l.28-1.74Zm-4.12,6.11c0-1.72-.86-3.15-2.6-3.15s-2.63,1.43-2.63,3.15S123,16,124.73,16,127.36,14.55,127.36,12.84Z"/><path class="cls-2" d="M0,24.42H11.45v3.4h-7v3.95h6.47v3.49H4.4V42H0Z"/><path class="cls-2" d="M17.92,24.42h5.31L29.17,42H24.53l-1-3.31H17.31l-1,3.31H12Zm4.59,10.84-2.1-6.72-2.1,6.72Z"/><path class="cls-2" d="M30.61,33.18c0-5.94,4.26-9,8.76-9a7.89,7.89,0,0,1,6.53,3L43.74,30a5,5,0,0,0-4.09-2.1c-2.68,0-4.56,2-4.56,5.17s1.82,5.23,4.53,5.23a5.31,5.31,0,0,0,4.18-2.11l2.13,3.05a8,8,0,0,1-6.67,3C34.48,42.25,30.61,39.13,30.61,33.18Z"/><path class="cls-2" d="M52.23,27.85H47.48V24.42H61.35v3.43H56.6V42H52.23Z"/><path class="cls-2" d="M62.66,33.18c0-5.5,3.4-9,8.79-9s8.76,3.54,8.76,9-3.37,9.07-8.76,9.07S62.66,38.69,62.66,33.18Zm13.07,0c0-3.07-1.44-5.39-4.28-5.39s-4.32,2.32-4.32,5.39,1.47,5.42,4.32,5.42S75.73,36.22,75.73,33.13Z"/><path class="cls-2" d="M84,24.42h6.93a7.87,7.87,0,0,1,4.68,1.16,5.1,5.1,0,0,1,2.07,4.23A5.61,5.61,0,0,1,97,32.55a5.28,5.28,0,0,1-2.66,2.24L98.68,42h-5l-3.62-6.44H88.31V42H84Zm6.6,7.88a3.16,3.16,0,0,0,1.85-.47A2.25,2.25,0,0,0,93.23,30a2.21,2.21,0,0,0-.83-1.79,3.16,3.16,0,0,0-1.85-.47H88.31V32.3Z"/><path class="cls-2" d="M105.46,34.9,99.37,24.42h4.84l3.43,7.08,3.43-7.08h4.81L109.82,34.9V42h-4.36Z"/><path class="cls-2" d="M16.94,0l.11,9.6L8.32,4.36l.11,4.88L0,4.46V19.82l21.15,0V0ZM7.23,15.06H4.54V12.37H7.23Zm4.47,0H9V12.37H11.7Zm4.47,0h-2.7V12.37h2.7Z"/></g></g></svg>