<svg xmlns="http://www.w3.org/2000/svg" viewBox="0 0 120.07 26.54"><defs><style>.cls-1{fill:#fff;}</style></defs><title>backAsset 5</title><g id="Layer_2" data-name="Layer 2"><g id="Layer_1-2" data-name="Layer 1"><path class="cls-1" d="M10.37,4.24a3,3,0,0,0-.56-.64,4.57,4.57,0,0,0-1.89-.93,4.81,4.81,0,0,0-1.2-.14,3.91,3.91,0,0,0-2.4.59,1.76,1.76,0,0,0-.78,1.45,1.27,1.27,0,0,0,.27.83A2,2,0,0,0,4.56,6a4.42,4.42,0,0,0,1.08.34q.62.12,1.32.21a20.92,20.92,0,0,1,2.33.42,6.28,6.28,0,0,1,2,.8,4.14,4.14,0,0,1,1.37,1.42,4.45,4.45,0,0,1,.51,2.26,4.44,4.44,0,0,1-.52,2.22,4.46,4.46,0,0,1-1.42,1.51A6.29,6.29,0,0,1,9.15,16a10.4,10.4,0,0,1-2.45.29,12,12,0,0,1-2.22-.2,7,7,0,0,1-1.89-.64A5.3,5.3,0,0,1,1.08,14.3,5.92,5.92,0,0,1,0,12.52l2.42-1.25a3.4,3.4,0,0,0,.7,1.09,3.78,3.78,0,0,0,1,.76,4.56,4.56,0,0,0,1.24.44,6.25,6.25,0,0,0,1.37.14,7.12,7.12,0,0,0,1.32-.12,3.6,3.6,0,0,0,1.13-.4,2.39,2.39,0,0,0,.79-.72,1.79,1.79,0,0,0,.3-1.06,1.6,1.6,0,0,0-.27-.94,2.16,2.16,0,0,0-.74-.65,4,4,0,0,0-1.13-.43,11.34,11.34,0,0,0-1.42-.24,17.59,17.59,0,0,1-2.27-.4A6.39,6.39,0,0,1,2.53,8,3.85,3.85,0,0,1,1.19,6.61,4,4,0,0,1,.68,4.48a3.76,3.76,0,0,1,.53-2A4.36,4.36,0,0,1,2.59,1.06,6.88,6.88,0,0,1,4.51.26,9.11,9.11,0,0,1,6.63,0,11.89,11.89,0,0,1,8.42.14a6.75,6.75,0,0,1,1.69.5,5.36,5.36,0,0,1,1.46.94,5,5,0,0,1,1.1,1.47Z"/><path class="cls-1" d="M24.71,14.42a5.61,5.61,0,0,1-4.18,1.72,7.09,7.09,0,0,1-2.23-.35,5,5,0,0,1-1.82-1.07,5.07,5.07,0,0,1-1.24-1.79,6.27,6.27,0,0,1-.46-2.52,6.35,6.35,0,0,1,.46-2.53,5.26,5.26,0,0,1,1.24-1.79A5.1,5.1,0,0,1,18.3,5a7.09,7.09,0,0,1,2.23-.35A5.73,5.73,0,0,1,22.62,5a5.63,5.63,0,0,1,1.82,1.23L22.75,8a3.29,3.29,0,0,0-1-.65,3.22,3.22,0,0,0-1.13-.21,3.35,3.35,0,0,0-1.25.23,3,3,0,0,0-1,.66,3,3,0,0,0-.65,1,3.66,3.66,0,0,0-.23,1.3,3.62,3.62,0,0,0,.24,1.36,2.76,2.76,0,0,0,.67,1,3.08,3.08,0,0,0,1,.6,3.25,3.25,0,0,0,1.18.21,4.15,4.15,0,0,0,1.26-.2,2.81,2.81,0,0,0,1.12-.7Z"/><path class="cls-1" d="M29.21.58V6.3A3.77,3.77,0,0,1,30.8,5a4.82,4.82,0,0,1,1.79-.34,4.91,4.91,0,0,1,2,.37A3.58,3.58,0,0,1,36,6.12a4.48,4.48,0,0,1,.8,1.67A8.08,8.08,0,0,1,37,10v6.19H34.35V10a2.86,2.86,0,0,0-.69-2.15,2.49,2.49,0,0,0-1.77-.66,2.59,2.59,0,0,0-1.09.23,2.54,2.54,0,0,0-.85.64,3,3,0,0,0-.54.94,3.13,3.13,0,0,0-.2,1.15v6H26.53V.58Z"/><path class="cls-1" d="M68.19.58V16.14H65.53V.58Z"/><path class="cls-1" d="M70.59,20.86V4.68H73.1l.17,1.73a3.78,3.78,0,0,1,1.62-1.33,4.91,4.91,0,0,1,1.9-.4,5.57,5.57,0,0,1,2.27.44,5.15,5.15,0,0,1,2.89,3,6.17,6.17,0,0,1,.39,2.2v.19A6.71,6.71,0,0,1,82,12.72a5.42,5.42,0,0,1-1.06,1.8,5,5,0,0,1-1.73,1.2,5.67,5.67,0,0,1-2.31.44,6.45,6.45,0,0,1-.95-.07,5.08,5.08,0,0,1-1-.26,3.7,3.7,0,0,1-.93-.47,2.67,2.67,0,0,1-.73-.73v6.23Zm6-7.29a3.2,3.2,0,0,0,1.25-.24,2.92,2.92,0,0,0,1-.66,2.78,2.78,0,0,0,.62-1,3.15,3.15,0,0,0,.22-1.19,3.6,3.6,0,0,0-.2-1.2,2.84,2.84,0,0,0-.61-1,2.88,2.88,0,0,0-1-.66,3.38,3.38,0,0,0-1.3-.24,3.35,3.35,0,0,0-1.3.24,2.88,2.88,0,0,0-1,.66,2.84,2.84,0,0,0-.61,1,3.59,3.59,0,0,0,0,2.39,2.9,2.9,0,0,0,1.61,1.64A3.2,3.2,0,0,0,76.59,13.57Z"/><path class="cls-1" d="M93,6.48,93.13,5H95.7V16.14H93.18L93,14.23a2.79,2.79,0,0,1-.65.84A4.45,4.45,0,0,1,90.5,16a4.3,4.3,0,0,1-1,.12,6.63,6.63,0,0,1-2.22-.36,4.67,4.67,0,0,1-1.77-1.09,4.93,4.93,0,0,1-1.17-1.8,7.08,7.08,0,0,1-.41-2.5,6.3,6.3,0,0,1,.44-2.47,5,5,0,0,1,1.19-1.78,4.91,4.91,0,0,1,1.79-1.07,7,7,0,0,1,2.22-.35,4.56,4.56,0,0,1,2,.47A3.29,3.29,0,0,1,93,6.48Zm-3.21.64a3.73,3.73,0,0,0-1.25.21,2.9,2.9,0,0,0-1,.64,3,3,0,0,0-.68,1,3.62,3.62,0,0,0-.25,1.39,3.57,3.57,0,0,0,.25,1.38,3,3,0,0,0,.68,1,2.66,2.66,0,0,0,1,.65,3.5,3.5,0,0,0,1.25.22,3.06,3.06,0,0,0,1.76-.48,3,3,0,0,0,1-1.22,3.74,3.74,0,0,0,0-3.16,3,3,0,0,0-1-1.22A3.06,3.06,0,0,0,89.83,7.12Z"/><path class="cls-1" d="M107.88,14.41a5.81,5.81,0,0,1-1.95,1.32,5.89,5.89,0,0,1-2.22.4,7.09,7.09,0,0,1-2.23-.35,5,5,0,0,1-1.82-1.07,5.07,5.07,0,0,1-1.24-1.79A6.27,6.27,0,0,1,98,10.4a6.35,6.35,0,0,1,.46-2.53,5.26,5.26,0,0,1,1.24-1.79A5.1,5.1,0,0,1,101.48,5a6.81,6.81,0,0,1,2.23-.35A5.73,5.73,0,0,1,105.8,5a5.63,5.63,0,0,1,1.82,1.23L105.93,8a3.29,3.29,0,0,0-1-.65,3.22,3.22,0,0,0-1.13-.21,3.4,3.4,0,0,0-1.26.23,2.78,2.78,0,0,0-1,.66,3,3,0,0,0-.65,1,3.45,3.45,0,0,0-.23,1.3,3.62,3.62,0,0,0,.24,1.36,2.76,2.76,0,0,0,.67,1,3,3,0,0,0,1,.6,3.25,3.25,0,0,0,1.18.21,4.09,4.09,0,0,0,1.25-.2,2.68,2.68,0,0,0,1.12-.7Z"/><path class="cls-1" d="M112.39.55V9.42L116,5.07h3.21v.16l-4.42,4.94,5.24,5.77v.2h-3.23L112.39,11v5.14h-2.68V.55Z"/><path class="cls-1" d="M63.42,10.43A5.42,5.42,0,0,0,58,4.68c-2.85,0-4.74,1.86-6.55,3.72h0l-.17.18-.2.2-.67.71-.8.85-.12.13c-1.34,1.41-3,3.16-5,3.16a3,3,0,0,1-3-3.2,4.21,4.21,0,0,1,3.34-4.19,3.94,3.94,0,0,1,1.52.06,5.23,5.23,0,0,1,3.43,2.52A4.5,4.5,0,0,0,49,6.75a5.54,5.54,0,0,0-4.33-2.07,5.69,5.69,0,0,0-5.74,5.75,5.42,5.42,0,0,0,5.44,5.75c2.85,0,4.75-1.86,6.55-3.72h0l.18-.18.19-.2.67-.71.81-.84.12-.13c1.33-1.41,3-3.17,5-3.17a3,3,0,0,1,3,3.2A3.94,3.94,0,0,1,56,14.57h0A5.33,5.33,0,0,1,52.56,12a4.64,4.64,0,0,0,.81,2.07,5.55,5.55,0,0,0,4.25,2.07h.08A5.68,5.68,0,0,0,63.42,10.43Z"/><path class="cls-1" d="M71.21,22.9h.65v3.64h-.65Z"/><path class="cls-1" d="M76.68,22.9h.85l1.7,2.73h0V22.9h.64v3.64h-.82l-1.73-2.81h0v2.81h-.64Z"/><path class="cls-1" d="M84.7,22.9h2.35v.57h-1.7v1H87V25H85.35v1.53H84.7Z"/><path class="cls-1" d="M91.67,22.9h.64v3.64h-.64Z"/><path class="cls-1" d="M97.13,22.9H98l1.69,2.73h0V22.9h.65v3.64h-.82l-1.73-2.81h0v2.81h-.65Z"/><path class="cls-1" d="M105.16,22.9h.65v3.64h-.65Z"/><path class="cls-1" d="M111.36,23.47h-1.11V22.9h2.88v.57H112v3.07h-.65Z"/><path class="cls-1" d="M117.56,22.9H120v.57h-1.77v.92h1.67v.55h-1.67v1h1.86v.58h-2.51Z"/></g></g></svg>