<svg xmlns="http://www.w3.org/2000/svg" viewBox="0 0 313.75 123.14"><defs><style>.cls-1{fill:#fff;}.cls-2{fill:#febc15;}.cls-3{fill:#febb12;}.cls-4{fill:#febb13;}.cls-5{fill:#febc14;}.cls-6{fill:#febd18;}.cls-7{fill:#febf1c;}.cls-8{fill:#febf1e;}.cls-9{fill:#febe1b;}.cls-10{fill:#febd19;}.cls-11{fill:#febd16;}.cls-12{fill:#fec943;}.cls-13{fill:#fec430;}.cls-14{fill:#fec73a;}.cls-15{fill:#fec533;}.cls-16{fill:#fec118;}.cls-17{fill:#fefefe;}</style></defs><title>backAsset 1</title><g id="Layer_2" data-name="Layer 2"><g id="Layer_1-2" data-name="Layer 1"><path class="cls-1" d="M222,91.5c-5.32,0-10.65,0-16,0-1.5,0-3.32.13-3.33-2s1.87-2,3.34-2c9.82,0,19.64,0,29.47,0,10.8,0,17.39-10.47,12.88-20.31a7.12,7.12,0,0,0-7-4.6c-5.49,0-11-.17-16.47,0-6,.25-10.92-1.25-13.48-7.15-2.79-6.44-1.53-12.48,2.86-17.64a16.75,16.75,0,0,1,13.59-6.21c8.65.17,17.31,0,26,.06,1.6,0,3.85-.38,3.86,2s-2.27,1.91-3.84,1.92c-8.82,0-17.64-.09-26.46,0A13.47,13.47,0,0,0,214,50.48c.61,5.16,3.68,8,8.9,8.12s10.68.3,16-.05c11.47-.75,14.91,7.63,14.61,15.77-.39,10.68-7.76,17.19-18.57,17.2-4.33,0-8.65,0-13,0Z"/><path class="cls-2" d="M107,44.1c2.69,4.21,5.39,8.42,8.06,12.65A6.11,6.11,0,0,0,121.17,60c7.55-.3,15.13,0,22.69.06,1.32,0,2.89-.54,3,1.44.19,2.45-1.85,2.16-3.13,1.88-11.69-2.64-18.56,2.94-22.79,13.15-1.27.81-1.64,3.45-4,2,2.15-5.11,6.28-9.15,8.24-15.07h-22.6q-12.75,0-25.49,0c-4,0-8.11-.74-11.37,3.08-1.69,2-4.42,1.11-6.29-.64a4.89,4.89,0,0,1-.83-6.76c1.42-2.17,4.08-3.81,5.92-2.24,5.67,4.82,12.2,3,18.42,3.14,9.23.26,18.48.06,27.71,0a11.9,11.9,0,0,0,2.52-.59l-7.73-12.75C105.76,45.68,105.91,44.59,107,44.1Z"/><path class="cls-3" d="M107,44.1a3,3,0,0,1-1.57,2.59c-1.15-1.72-2.85-2-4.76-1.95q-6.7.1-13.41.06c-3.28,0-6.33-.24-9,2.7-2.06,2.28-5,1.43-7-.78s-1.93-4.55-.16-6.79S76,36.44,78,38.67c3.12,3.4,6.73,2.84,10.46,2.85,4.64,0,9.29,0,13.93,0C104.5,41.49,106.49,41.45,107,44.1Z"/><path class="cls-4" d="M117,78.5c1.71.12,2.55-1.57,4-2-1.4,4.76-4.26,7.13-9.5,6.31-3.1-.49-5.93-.19-8.46,2.58-2,2.26-5,1.46-7-.8s-1.9-4.91.16-7.19,5-2.67,7.1-.55C107.54,81.16,112.22,79.53,117,78.5Z"/><path class="cls-5" d="M112.17,29.48c-3.28-.42-5.24-2.4-5.12-5.58.12-3.45,2.41-5.53,5.91-5.23,3.24.27,5,2.51,4.88,5.78S115.4,29.26,112.17,29.48Z"/><path class="cls-2" d="M93,24.05c-.41,3.2-2.08,5.29-5.4,5.31s-5.45-2-5.53-5.16c-.08-3.41,2.08-5.6,5.61-5.56C91,18.68,92.69,20.82,93,24.05Z"/><path class="cls-5" d="M94.7,5.91C94.75,2,96.92,0,100.22,0a5.11,5.11,0,0,1,5.26,5.45c0,3.19-2.09,5.23-5.34,5.32S95.05,8.92,94.7,5.91Z"/><path class="cls-2" d="M105.6,117.55c-.66,3.52-2.43,5.89-6,5.56-3.06-.28-5.24-2.22-5-5.61.27-3.23,2.3-5.15,5.55-5.09S105.11,114.68,105.6,117.55Z"/><path class="cls-3" d="M117.22,98.45c-.3,3.31-1.87,5.31-5.34,5.39s-5.44-2-5.45-5.17,1.71-5.41,5.29-5.38C115.12,93.31,116.87,95.16,117.22,98.45Z"/><path class="cls-6" d="M63.69,19.52c2.64.36,4.26,1.89,4.24,4.54a4.06,4.06,0,0,1-4.36,4.38c-2.84-.05-4.72-1.77-4.55-4.72C59.16,21.06,61,19.73,63.69,19.52Z"/><path class="cls-2" d="M42.91,61.48c-.36,3.06-1.71,4.87-4.43,4.9-2.57,0-4.5-1.34-4.61-4.15-.11-3,1.6-4.63,4.54-4.72S42.24,59.54,42.91,61.48Z"/><path class="cls-2" d="M50.62,85.56a4.19,4.19,0,0,1-4-4.53c0-2.65,1.65-4.46,4.36-4.37s4.83,1.82,4.58,4.73C55.36,83.86,53.69,85.56,50.62,85.56Z"/><path class="cls-6" d="M75.43,122.29c-2.61-.32-4.37-1.88-4.38-4.46,0-2.84,1.8-4.62,4.79-4.43A4.06,4.06,0,0,1,80,118C79.9,120.76,78.12,122,75.43,122.29Z"/><path class="cls-2" d="M86.33,94.31c4.28-.06,6,1.49,6.1,4.06A4.23,4.23,0,0,1,87.79,103a3.94,3.94,0,0,1-4.22-4.38C83.62,95.92,85.05,94.37,86.33,94.31Z"/><path class="cls-5" d="M80.23,81.17c-.3,2.62-1.55,4.36-4.37,4.34-3.07,0-4.6-2.05-4.47-4.75A4.15,4.15,0,0,1,76,76.64C78.71,76.79,80.11,78.46,80.23,81.17Z"/><path class="cls-2" d="M55.5,43.08c-.52,2.55-1.77,4.45-4.51,4.5a4.27,4.27,0,0,1-4.62-4.69c.05-2.58,2.09-4.21,4.66-4.21S55,40.62,55.5,43.08Z"/><path class="cls-3" d="M75.36,1.14c2.92.22,4.5,1.86,4.43,4.52S78,9.93,75.22,9.81,70.83,8.18,70.9,5.38,72.84,1.36,75.36,1.14Z"/><path class="cls-7" d="M24.14,62c-.52,1.92-1.51,3.51-3.68,3.34a3.36,3.36,0,0,1-3.37-3.58,3.33,3.33,0,0,1,3.64-3.29C22.94,58.52,23.87,60,24.14,62Z"/><path class="cls-8" d="M30.14,80.82c-.06,2.18-1,3.56-3.22,3.7a3.22,3.22,0,0,1-3.68-3.18,3.34,3.34,0,0,1,3.24-3.7C28.57,77.52,29.83,78.78,30.14,80.82Z"/><path class="cls-9" d="M42.2,24.37a3.14,3.14,0,0,1-3.66,3,3.2,3.2,0,0,1-3.19-3.64,3.27,3.27,0,0,1,3.7-3.16C41.27,20.74,42.09,22.24,42.2,24.37Z"/><path class="cls-8" d="M51.72,121.32c-2.4-.23-3.78-1.35-3.9-3.41a3.07,3.07,0,0,1,3.29-3.49,3.2,3.2,0,0,1,3.61,3.23C54.81,119.77,53.31,120.79,51.72,121.32Z"/><path class="cls-10" d="M50.94,9.41c-2.13-.31-3.58-1.63-3.57-3.55a3.51,3.51,0,0,1,7,0C54.47,7.92,52.82,9,50.94,9.41Z"/><path class="cls-6" d="M30.44,43.34c-.6,2.18-1.7,3.48-3.9,3.19a3.06,3.06,0,0,1-2.91-3.77c.26-2.07,1.59-3.39,3.7-3A3.47,3.47,0,0,1,30.44,43.34Z"/><path class="cls-6" d="M39.1,102.08c-2-.44-3.4-1.46-3.34-3.64s1.58-3.18,3.58-3.18a3.11,3.11,0,0,1,3.28,3.5C42.56,100.81,41,101.82,39.1,102.08Z"/><path class="cls-11" d="M64,102.19a3.81,3.81,0,0,1-3.63-3.5c-.23-2.29,1.31-3.28,3.38-3.37a3,3,0,0,1,3.34,3C67.36,100.47,66,101.58,64,102.19Z"/><path class="cls-12" d="M10.71,81.22c-.32,1-.81,1.91-2,1.79a1.78,1.78,0,0,1-1.74-2,1.71,1.71,0,0,1,2-1.71A1.67,1.67,0,0,1,10.71,81.22Z"/><path class="cls-13" d="M1.6,59.69c1.34.35,2.25.82,2.09,2a1.81,1.81,0,0,1-2.15,1.56A1.77,1.77,0,0,1,0,61.6C-.07,60.31,1.07,60.19,1.6,59.69Z"/><path class="cls-14" d="M21.89,98.52c-.18,1.07-.78,1.85-1.9,1.76a1.65,1.65,0,0,1-1.71-1.88,1.79,1.79,0,0,1,1.64-1.55A1.71,1.71,0,0,1,21.89,98.52Z"/><path class="cls-15" d="M8.3,44.89c-1.19-.09-1.9-.76-1.76-1.9a1.67,1.67,0,0,1,1.73-1.46c1.26,0,1.74.8,1.67,1.92A1.45,1.45,0,0,1,8.3,44.89Z"/><path class="cls-16" d="M20.69,22.61A1.42,1.42,0,0,1,22,24.32a1.38,1.38,0,0,1-1.68,1.34c-.89-.1-1.58-.52-1.33-1.59A1.74,1.74,0,0,1,20.69,22.61Z"/><path class="cls-17" d="M190.15,32.38c-5.48-.08-11,0-16.46,0-8.68,0-17.07,6.33-18.69,14.78-4.14,21.68-8,43.4-11.91,65.12-.29,1.62-1.85,4.45,1.22,4.88,2.42.33,2.24-2.39,2.56-4.1,1.71-9.12,3.37-18.25,5.2-28.22,5.31,5.77,11,7.57,17.78,6.74a90.68,90.68,0,0,1,9.48-.18c10-.16,16.87-6.09,18.47-15.93q2.32-14.25,4.73-28.49C204,38.48,199,32.52,190.15,32.38Zm8.29,14.31q-2.2,13.28-4.37,26.57c-1.71,10.28-5.95,14-16.17,14.21-1.66,0-3.33,0-4.63,0-6.5.37-12.79,1.29-17.41-4.38-1.84-2.25-2.93-4.29-2.19-7.56,1.78-7.93,3-16,4.38-24,1.86-10.6,7.3-15.22,17.9-15.2,4.65,0,9.31-.16,14,0C196.39,36.44,199.5,40.36,198.44,46.69Z"/><path class="cls-17" d="M300.19,32.59c-5.65,0-11.3,0-17,0-9.18,0-16.16,5-18.2,13.87-2.35,10.18-4.49,20.44-5.3,30.9-.67,8.63,3.94,13.86,12.72,14.23,5.64.23,11.31.06,17,.06,4.66,0,9.32,0,14-.06,1.18,0,2.42-.22,2.42-1.83s-1.15-1.89-2.37-2-2.33,0-3.5,0c-8.81,0-17.63.12-26.45,0-7.48-.14-10.27-3.23-9.81-10.57.19-3.14.92-6.25,1.14-9.39.18-2.63,1.45-3.3,3.88-3.25,6.49.12,13,0,19.46,0v-.26c6.49,0,13,0,19.45,0,2.78,0,4.26-.9,4.48-4,.32-4.47,1.32-8.88,1.61-13.35C314.31,37.71,309.41,32.63,300.19,32.59ZM295,60.37H286.5v.12c-5.82,0-11.64,0-17.46,0-1.13,0-3.13.56-2.49-1.8,1.49-5.55,1.3-11.58,5-16.53,2.77-3.73,6.09-5.85,10.92-5.68,6.15.21,12.31,0,18.46.08,5.94.09,9.15,3.55,9,9.4C309.36,60.37,309.36,60.37,295,60.37Z"/></g></g></svg>